-
http:// www . torrentkit. com        
http:// www .torrentkit. com       the fast  and The Hottest Private Tracker on the net

Please Seed back to make the speed Faster!!!

and don't forget to visit      ...... www .torrentkit .com..........
-                                                                                                     
       
     
     
       
       
     
     
                                         
                                         
                EXVID                    
                                         
         
                                         
         Filled the Archives             
                                         
         
                                         
                With:                    
                                         
         
                                         
                                    
     E240                           
                                    
     SP               (C) 2009      
                                         
     
     
     
                                                                                  
                                                                                   
  The.Bob.Hope.Christmas.Special.Around.the.World.with.the.USO.1969.DVDRip.XviD-EXViD 
                                                                                   
                                                                                  
     
                                                                                               
EXViD aims to iNTERNAL those releases which have been lost in the archives.
EXViD aims to PRE non-internal releases which have poor sources and are likely skipped by others.
 
http://www.imdb.com/title/tt0757169/
Subtitles: None
Date: 2011.03

Director: Dick McDonough
Genre: Comedy

Cast
Credited cast:
Ann-Margret 	Ann-Margret 	... 	
Herself
Neil Armstrong 	Neil Armstrong 	... 	
Himself
Linda Bennett 	Linda Bennett 	... 	
Herself
The Golddiggers 	The Golddiggers 	... 	
Themselves
Roosevelt Grier 	Roosevelt Grier 	... 	
Himself
Honey Ltd. 	Honey Ltd. 	... 	
Themselves
Bob Hope 	Bob Hope 	... 	
Himself - Host
Penny Plummer 	Penny Plummer 	... 	
Herself
Connie Stevens 	Connie Stevens 	... 	
Herself
Full cast and crew  

Stats:
General
Format                           : AVI
Format/Info                      : Audio Video Interleave
File size                        : 696 MiB
Duration                         : 1h 4mn
Overall bit rate                 : 1 500 Kbps
Writing application              : Nandub v1.0rc2
Writing library                  : Nandub build 1853/release

Video
ID                               : 0
Format                           : MPEG-4 Visual
Format profile                   : Advanced Simple@L5
Format settings, BVOP            : Yes
Format settings, QPel            : No
Format settings, GMC             : No warppoints
Format settings, Matrix          : Default (H.263)
Codec ID                         : XVID
Codec ID/Hint                    : XviD
Duration                         : 1h 4mn
Bit rate                         : 1 393 Kbps
Width                            : 608 pixels
Height                           : 448 pixels
Display aspect ratio             : 4:3
Frame rate                       : 25.000 fps
Resolution                       : 8 bits
Colorimetry                      : 4:2:0
Scan type                        : Progressive
Bits/(Pixel*Frame)               : 0.205
Stream size                      : 646 MiB (93%)
Writing library                  : XviD 61

Audio
ID                               : 1
Format                           : MPEG Audio
Format version                   : Version 1
Format profile                   : Layer 3
Codec ID                         : 55
Codec ID/Hint                    : MP3
Duration                         : 1h 4mn
Bit rate mode                    : Variable
Bit rate                         : 94.9 Kbps
Minimum bit rate                 : 32.0 Kbps
Channel(s)                       : 1 channel
Sampling rate                    : 48.0 KHz
Stream size                      : 44.0 MiB (6%)
Alignment                        : Aligned on interleaves
Interleave, duration             : 24 ms (0.60 video frame)
Interleave, preload duration     : 186 ms
Writing library                  : LAME3.95 
Encoding settings                : -m m -V 4 -q 3 -lowpass 18 --vbr-old -b 32




Release notes:
enjoy! source is pretty fucked, vobsample included.

Looking for:
75TB+ Archives
                                                                                                    
Greets: CRBS EPiSODE FiCO FLS iLS KLASSiGER LiPSYNC MADE NODLABS RUNNER SPRiNTER
   

                                                                    ASCII DONE BY XX^NFO 2oo9